# xmcd
#
# Track frame offsets:
#	150
#	14825
#	31869
#	62577
#	88329
#	107132
#	118748
#	137223
#	160308
#	180402
#
# Disc length: 2641 seconds
#
# Revision: 0
# Processed by: cddbd v1.5.1PL0 Copyright (c) Steve Scherf et al.
# Submitted via: audiograbber 1.83.01
#
DISCID=880a4f0a
DTITLE=Westbrook Band - Live in Cuxhaven
DYEAR=1900
DGENRE=Country
TTITLE0=Fox On The Run
TTITLE1=Mercury Blues
TTITLE2=Take A Letter Maria - Mountain Music
TTITLE3=Orange Blossom Special
TTITLE4=Wild Horses
TTITLE5=Folsome Prison Blues
TTITLE6=Hillibillie Country Lilly
TTITLE7=Ain't Going Nowhere
TTITLE8=Mamas Don't Let Your Babies....
TTITLE9=Heidecowboy (Bonus Track)
EXTD=
EXTT0=
EXTT1=
EXTT2=
EXTT3=
EXTT4=
EXTT5=
EXTT6=
EXTT7=
EXTT8=
EXTT9=
PLAYORDER=
